<svg width="123" height="32" viewBox="0 0 123 32" fill="none" xmlns="http://www.w3.org/2000/svg">
<path d="M44.4271 25C44.1047 25 43.8393 24.8957 43.6307 24.6871C43.4221 24.4785 43.3178 24.213 43.3178 23.8907V3.89422C43.3178 3.57185 43.4221 3.30637 43.6307 3.09777C43.8393 2.88918 44.1047 2.78489 44.4271 2.78489C44.7684 2.78489 45.0529 2.91763 45.2804 3.18311L58.8769 21.0462V3.89422C58.8769 3.57185 58.9812 3.30637 59.1898 3.09777C59.3984 2.88918 59.6638 2.78489 59.9862 2.78489C60.2896 2.78489 60.5456 2.88918 60.7542 3.09777C60.9818 3.30637 61.0955 3.57185 61.0955 3.89422V23.8907C61.0955 24.213 60.9818 24.4785 60.7542 24.6871C60.5456 24.8957 60.2896 25 59.9862 25C59.8345 25 59.6828 24.9716 59.5311 24.9147C59.3794 24.8578 59.2561 24.763 59.1613 24.6302L45.5364 6.76711V23.8907C45.5364 24.213 45.4227 24.4785 45.1951 24.6871C44.9865 24.8957 44.7305 25 44.4271 25ZM73.1331 25.1422C71.5971 25.1422 70.2318 24.8104 69.0371 24.1467C67.8614 23.464 66.9322 22.5253 66.2495 21.3307C65.5858 20.136 65.254 18.7707 65.254 17.2347C65.254 15.6797 65.5669 14.3144 66.1927 13.1387C66.8374 11.944 67.7192 11.0053 68.838 10.3227C69.9568 9.64 71.2463 9.29866 72.7064 9.29866C74.1476 9.29866 75.3992 9.63052 76.4611 10.2942C77.542 10.939 78.3764 11.8397 78.9642 12.9964C79.5521 14.1532 79.846 15.4711 79.846 16.9502C79.846 17.2536 79.7512 17.5001 79.5615 17.6898C79.3719 17.8604 79.1254 17.9458 78.822 17.9458H66.7331V16.1253H79.0495L77.8264 17.0071C77.8454 15.9073 77.6463 14.9212 77.2291 14.0489C76.8119 13.1766 76.2146 12.4939 75.4371 12.0009C74.6786 11.5079 73.7684 11.2613 72.7064 11.2613C71.6255 11.2613 70.6774 11.5173 69.862 12.0293C69.0466 12.5413 68.4113 13.2524 67.9562 14.1627C67.5201 15.0539 67.302 16.0779 67.302 17.2347C67.302 18.3914 67.5485 19.4154 68.0415 20.3067C68.5535 21.1979 69.2457 21.8996 70.118 22.4116C70.9903 22.9236 71.9953 23.1796 73.1331 23.1796C73.8158 23.1796 74.4984 23.0658 75.1811 22.8382C75.8827 22.5917 76.4421 22.2883 76.8593 21.928C77.0679 21.7573 77.305 21.672 77.5704 21.672C77.8359 21.653 78.0635 21.7194 78.2531 21.8711C78.4996 22.0987 78.6229 22.3452 78.6229 22.6107C78.6418 22.8761 78.5375 23.1037 78.31 23.2933C77.6842 23.8243 76.8878 24.2699 75.9207 24.6302C74.9535 24.9716 74.0244 25.1422 73.1331 25.1422ZM86.096 25C85.8495 25 85.6314 24.9336 85.4418 24.8009C85.2521 24.6681 85.1194 24.4975 85.0435 24.2889L80.6062 10.9769C80.4924 10.5028 80.5019 10.133 80.6347 9.86755C80.7674 9.58311 81.0329 9.44089 81.4311 9.44089C81.6776 9.44089 81.8957 9.50726 82.0853 9.64C82.275 9.77274 82.4172 9.98133 82.512 10.2658L86.4658 22.3547H85.84L89.5093 10.2942C89.5852 10.0477 89.7084 9.84859 89.8791 9.69689C90.0687 9.52622 90.3058 9.44089 90.5902 9.44089C90.8747 9.44089 91.1022 9.51674 91.2729 9.66844C91.4625 9.82015 91.5953 10.0287 91.6711 10.2942L95.1698 22.0702H94.6862L98.5547 10.2658C98.7443 9.71585 99.0951 9.44089 99.6071 9.44089C100.024 9.44089 100.309 9.60207 100.46 9.92444C100.612 10.2279 100.612 10.5787 100.46 10.9769L96.0231 24.2889C95.9473 24.4975 95.8145 24.6681 95.6249 24.8009C95.4542 24.9336 95.2456 25 94.9991 25C94.7526 25 94.525 24.9336 94.3164 24.8009C94.1268 24.6681 94.0035 24.4975 93.9467 24.2889L90.3627 12.3991H90.704L87.12 24.2889C87.0441 24.5164 86.9114 24.6966 86.7218 24.8293C86.5321 24.9431 86.3235 25 86.096 25ZM108.631 25.1422C107.512 25.1422 106.403 24.9526 105.303 24.5733C104.203 24.1941 103.312 23.6252 102.629 22.8667C102.42 22.6391 102.335 22.3831 102.373 22.0987C102.411 21.8142 102.553 21.5677 102.8 21.3591C103.065 21.1695 103.34 21.0936 103.624 21.1316C103.909 21.1695 104.146 21.2927 104.336 21.5013C104.791 22.0323 105.388 22.44 106.128 22.7244C106.886 23.0089 107.72 23.1511 108.631 23.1511C110.034 23.1511 111.048 22.9141 111.674 22.44C112.3 21.947 112.622 21.3591 112.641 20.6764C112.641 19.9938 112.319 19.4344 111.674 18.9982C111.029 18.5431 109.968 18.1923 108.488 17.9458C106.573 17.6424 105.17 17.1114 104.279 16.3529C103.387 15.5944 102.942 14.6936 102.942 13.6507C102.942 12.6836 103.198 11.8776 103.71 11.2329C104.222 10.5881 104.904 10.1046 105.758 9.78222C106.611 9.45985 107.55 9.29866 108.574 9.29866C109.844 9.29866 110.935 9.51674 111.845 9.95289C112.774 10.389 113.523 10.9769 114.092 11.7164C114.282 11.963 114.357 12.219 114.32 12.4844C114.282 12.7499 114.13 12.968 113.864 13.1387C113.637 13.2714 113.371 13.3188 113.068 13.2809C112.784 13.224 112.537 13.0818 112.328 12.8542C111.854 12.3043 111.304 11.9061 110.679 11.6596C110.053 11.3941 109.332 11.2613 108.517 11.2613C107.474 11.2613 106.64 11.4794 106.014 11.9156C105.388 12.3327 105.075 12.8637 105.075 13.5084C105.075 13.9446 105.189 14.3239 105.416 14.6462C105.663 14.9686 106.071 15.253 106.64 15.4996C107.227 15.7461 108.043 15.9547 109.086 16.1253C110.508 16.3529 111.627 16.6942 112.442 17.1493C113.277 17.5855 113.864 18.107 114.206 18.7138C114.566 19.3016 114.746 19.9464 114.746 20.648C114.746 21.5393 114.481 22.3262 113.95 23.0089C113.438 23.6726 112.717 24.1941 111.788 24.5733C110.878 24.9526 109.825 25.1422 108.631 25.1422Z" fill="black"/>
<path fill-rule="evenodd" clip-rule="evenodd" d="M15.8464 2.96295H8.58307e-06L6.67216 9.63511H22.5185L15.8464 2.96295ZM6.67215 9.63511V25.4815L0 18.8093V2.96296L6.67215 9.63511Z" fill="#CCCCCC"/>
<path fill-rule="evenodd" clip-rule="evenodd" d="M6.67212 25.4815L22.5185 25.4815L15.8463 18.8093L-3.8147e-05 18.8093L6.67212 25.4815ZM15.8463 18.8093L15.8463 2.96295L22.5185 9.63511L22.5185 25.4815L15.8463 18.8093Z" fill="black"/>
</svg>
